<svg width="19" height="18" viewBox="0 0 19 18" fill="none" xmlns="http://www.w3.org/2000/svg">
<path d="M8.46777 7.875V6.75C8.46777 5.92157 9.13932 5.25 9.96777 5.25C10.7962 5.25 11.4678 5.92157 11.4678 6.75V7.875M9.40527 12H10.5303C11.4099 12 11.8497 12 12.1526 11.7675C12.2306 11.7076 12.3004 11.6378 12.3603 11.5598C12.5928 11.2569 12.5928 10.8171 12.5928 9.9375C12.5928 9.0579 12.5928 8.6181 12.3603 8.31517C12.3004 8.23717 12.2306 8.16735 12.1526 8.1075C11.8497 7.875 11.4099 7.875 10.5303 7.875H9.40527C8.52567 7.875 8.08589 7.875 7.78292 8.1075C7.70492 8.16735 7.6351 8.23717 7.57525 8.31517C7.34277 8.6181 7.34277 9.0579 7.34277 9.9375C7.34277 10.8171 7.34277 11.2569 7.57525 11.5598C7.6351 11.6378 7.70492 11.7076 7.78292 11.7675C8.08589 12 8.52567 12 9.40527 12Z" stroke="white" stroke-linejoin="round"/>
<path d="M16.7178 8.38748V6.21022C16.7178 4.98022 16.7178 4.36521 16.4147 3.96397C16.1116 3.56272 15.4263 3.36792 14.0558 2.97833C13.1194 2.71215 12.294 2.39147 11.6345 2.09872C10.7353 1.69957 10.2858 1.5 9.96777 1.5C9.64977 1.5 9.20022 1.69957 8.30106 2.09872C7.64157 2.39147 6.81615 2.71214 5.87977 2.97833C4.50922 3.36792 3.82394 3.56272 3.52086 3.96397C3.21777 4.36521 3.21777 4.98022 3.21777 6.21022V8.38748C3.21777 12.6064 7.01485 15.1376 8.91327 16.1395C9.3686 16.3798 9.59622 16.5 9.96777 16.5C10.3393 16.5 10.5669 16.3798 11.0223 16.1395C12.9207 15.1376 16.7178 12.6064 16.7178 8.38748Z" stroke="white" stroke-linecap="round"/>
</svg>
